# xmcd
#
# Track frame offsets: 
#        150
#        15123
#        30211
#        43356
#        57139
#        70357
#        87267
#        99396
#        113045
#        123432
#        135282
#        153568
#        164808
#        179251
#        193445
#        209021
#        228238
#        246029
#        266723
#        280545
#
# Disc length: 4004 seconds
#
# Revision: 0
# Processed by: cddbd v1.5.2PL0 Copyright (c) Steve Scherf et al.
# Submitted via: ExactAudioCopy v0.99pb5
#
DISCID=150fa214
DTITLE=Aretha Franklin  - 100 Hits Legends - CD3
DYEAR=1900
DGENRE=
TTITLE0=01 Son Of A Preacher Man
TTITLE1=02 Share Your Love With Me
TTITLE2=03 The Weight
TTITLE3=04 I Can't See Myself Leaving You
TTITLE4=05 Tracks Of Tears
TTITLE5=06 Bring It On Home To Me
TTITLE6=07 River's Invitation
TTITLE7=08 Don't Play That Song
TTITLE8=09 You're A Sweet Sweet Man
TTITLE9=10 Eleanor Rigby
TTITLE10=11 Spirit In The Dark
TTITLE11=12 Gentle On My Mind
TTITLE12=13 Ramblin
TTITLE13=14 If You Gotta Make A Fool Of Somebody
TTITLE14=15 Crazy He Calls Me
TTITLE15=16 I'll Never Be Free
TTITLE16=17 Call Me
TTITLE17=18 So Long
TTITLE18=19 Pitful
TTITLE19=20 Bridge Over Troubled Water
EXTD=
EXTT0=
EXTT1=
EXTT2=
EXTT3=
EXTT4=
EXTT5=
EXTT6=
EXTT7=
EXTT8=
EXTT9=
EXTT10=
EXTT11=
EXTT12=
EXTT13=
EXTT14=
EXTT15=
EXTT16=
EXTT17=
EXTT18=
EXTT19=
PLAYORDER=
